<svg xmlns="http://www.w3.org/2000/svg" xmlns:svg="http://www.w3.org/2000/svg" id="svg2" width="603.116" height="603.887" version="1.1"><metadata id="metadata7"/><g id="layer1" style="display:inline" transform="translate(-2.9000336,4.3318037)"><g id="g3003" transform="matrix(4.4946163,0,0,4.4784113,-1996.8254,-3025.1919)"><g style="display:inline" id="layer2"><path id="path3788" d="m 450.58474,716.40132 0,51.00389 35.87406,36.2877 51.05503,0 35.91927,-36.3334 0,-51.68942 -35.03824,-35.44222 -52.20713,0 z" style="fill:maroon;fill-opacity:1;stroke:#fff;stroke-width:2.44291782;stroke-linecap:butt;stroke-linejoin:miter;stroke-miterlimit:4;stroke-opacity:1;stroke-dasharray:none;display:inline"/></g></g></g><g id="layer5" style="display:inline" transform="translate(-2.9000336,4.3318037)"><g transform="matrix(0.97521805,0,0,1.0217146,0,0.07624875)" style="font-size:421.6192627px;font-style:normal;font-variant:normal;font-weight:700;font-stretch:normal;line-height:125%;letter-spacing:0;word-spacing:0;fill:#fff;fill-opacity:1;stroke:none;font-family:Source Sans Pro;-inkscape-font-specification:Sans Bold" id="text3053"><path id="path3058" d="m 218.83305,472.64625 61.97723,0 0,-53.96657 -3.79453,-37.94524 c 3.59241,3.70669 7.58016,6.20123 11.96329,7.48364 4.38293,1.28241 9.10851,1.8797 14.17677,1.79186 9.372,-0.0176 18.03265,-2.61752 25.98195,-7.79986 7.94903,-5.18233 14.60701,-12.84164 19.97396,-22.97795 l 1.68646,0 4.63775,29.09136 50.59366,0 0,-209.12047 -61.97724,0 0,138.28934 c -5.93788,8.16005 -11.7702,14.08021 -17.49698,17.76048 -5.72704,3.68038 -12.40259,5.48981 -20.02665,5.42828 -8.81887,0.21964 -15.31875,-2.64382 -19.49965,-8.59038 -4.18109,-5.94645 -6.25402,-16.29355 -6.21879,-31.04132 l 0,-121.8464 -61.97723,0 z"/></g></g></svg>